<svg xmlns="http://www.w3.org/2000/svg" version="1.1" xmlns:xlink="http://www.w3.org/1999/xlink" xmlns:svgjs="http://svgjs.com/svgjs" width="71.438019mm" height="71.4375mm"><svg width="71.438019mm" height="71.4375mm" viewBox="0 0 71.438019 71.4375" version="1.1" id="SvgjsSvg1005" xml:space="preserve" inkscape:version="1.2 (dc2aedaf03, 2022-05-15)" sodipodi:docname="easynwk_logo_traced.svg" xmlns:inkscape="http://www.inkscape.org/namespaces/inkscape" xmlns:sodipodi="http://sodipodi.sourceforge.net/DTD/sodipodi-0.dtd" xmlns="http://www.w3.org/2000/svg" xmlns:svg="http://www.w3.org/2000/svg"><sodipodi:namedview id="SvgjsSodipodi:namedview1004" pagecolor="#ffffff" bordercolor="#000000" borderopacity="0.25" inkscape:showpageshadow="2" inkscape:pageopacity="0.0" inkscape:pagecheckerboard="0" inkscape:deskcolor="#d1d1d1" inkscape:document-units="mm" showgrid="false" inkscape:zoom="1.4912879" inkscape:cx="-171.32842" inkscape:cy="161.60528" inkscape:window-width="1920" inkscape:window-height="1017" inkscape:window-x="-8" inkscape:window-y="-8" inkscape:window-maximized="1" inkscape:current-layer="layer1"></sodipodi:namedview><defs id="SvgjsDefs1003"></defs><g inkscape:label="Ebene 1" inkscape:groupmode="layer" id="SvgjsG1002" transform="translate(-113.72794,-113.3135)"><rect style="fill:#ffffff;stroke-width:0.0264582;stop-color:#000000" id="SvgjsRect1001" width="63.693546" height="44.532257" x="118.51825" y="129.45866"></rect><path id="SvgjsPath1000" style="fill:#0061a5;stroke-width:1;fill-opacity:1" d="m 113.72794,113.3135 v 35.71875 35.71875 h 35.71927 35.71875 V 149.03225 113.3135 h -35.71875 z m 59.24807,27.91354 0.3886,0.39687 0.38913,0.39688 -0.24598,1.32292 c -0.45875,2.46749 -2.25114,5.53783 -4.05454,6.94531 -0.9092,0.70959 -2.47845,0.8084 -2.72283,0.17156 -0.22542,-0.58745 0.36367,-0.87893 1.42679,-0.70641 l 0.89555,0.14521 0.76791,-0.73536 c 1.55981,-1.4944 0.68719,-7.77274 -0.90485,-6.5102 -0.39361,0.31216 -1.34695,0.20125 -1.84847,-0.21497 -1.1123,-0.92313 -1.60943,0.4654 -0.55914,1.56166 1.49103,1.5563 0.95858,3.34868 -1.07538,3.62149 -1.16665,0.15648 -2.06195,-0.39653 -1.90996,-1.17978 0.12288,-0.63327 0.75931,-0.70384 0.91674,-0.1018 0.25932,0.99163 1.50492,1.0029 1.81797,0.0165 0.10594,-0.33378 -0.0734,-0.78878 -0.51935,-1.31878 -1.76976,-2.10325 -0.31679,-4.46013 2.0283,-3.29024 l 0.81856,0.40824 0.63975,-0.4191 0.63976,-0.41909 0.49609,0.44855 c 0.52395,0.47416 1.22609,2.36249 1.37356,3.69383 l 0.0879,0.79375 0.47542,-1.05833 c 0.30791,-0.68593 0.43359,-1.44519 0.35709,-2.15801 -0.0649,-0.60489 -0.0191,-1.25974 0.1018,-1.45521 z m -10.30842,0.18293 c 0.0983,0.004 0.17005,0.0228 0.20671,0.0594 0.0363,0.0363 -0.19914,1.09088 -0.52297,2.34353 -0.57013,2.20547 -0.52992,3.00573 0.11782,2.35799 0.37352,-0.37352 0.73639,-0.40824 0.73639,-0.0703 0,0.32784 -1.67446,1.34462 -2.21433,1.34462 -0.23748,0 -0.4315,-0.17858 -0.4315,-0.39687 0,-0.49423 -0.24959,-0.49217 -0.91054,0.008 v 5.2e-4 c -2.46373,1.86347 -2.66644,-2.1207 -0.22583,-4.43798 0.55473,-0.52668 2.55608,-1.23605 3.24425,-1.20871 z m -6.44974,0.0558 c 0.27207,0.003 0.53131,0.0825 0.76378,0.2527 l 0.52297,0.38292 -0.26304,0.75345 c -0.17853,0.51096 -0.70845,0.99319 -1.64744,1.4981 -1.087,0.58449 -1.38441,0.88288 -1.38441,1.38906 0,0.7571 0.86009,0.87778 1.70429,0.23926 0.59641,-0.4511 0.94154,-0.49766 0.94154,-0.12712 0,0.1437 -0.47397,0.56042 -1.05316,0.92604 -1.8069,1.14065 -2.9204,0.7926 -2.9099,-0.90951 0.0136,-2.2073 1.85621,-4.42123 3.32537,-4.4049 z m -0.52089,0.6873 c -0.48721,0 -0.87453,0.49988 -1.10795,1.42989 l -0.19223,0.76584 0.36948,-0.21187 c 1.18912,-0.68259 1.79948,-1.98386 0.9307,-1.98386 z m 5.30923,0.30954 c -0.11193,-0.001 -0.24912,0.0245 -0.41289,0.0765 -1.04568,0.33189 -2.30053,3.07951 -1.68672,3.69332 0.61882,0.61882 1.60896,-0.28069 2.17144,-1.97301 0.41835,-1.25867 0.41323,-1.7903 -0.0718,-1.79679 z m -21.87773,7.0683 1.11621,0.0816 1.11621,0.0811 1.10123,4.7625 c 0.60547,2.61936 1.31027,5.70606 1.56631,6.85952 l 0.4656,2.09755 1.44074,-5.14025 c 0.79244,-2.82696 1.67373,-5.94341 1.95854,-6.92568 l 0.5178,-1.78594 h 1.31723 1.31775 l 0.23719,0.59532 c 0.0495,0.12405 0.12792,0.36093 0.2279,0.68419 0.1,0.32327 0.22151,0.73274 0.3576,1.20251 0.27217,0.93954 0.60199,2.11966 0.93224,3.329 0.33025,1.20933 0.66112,2.44824 0.93431,3.50573 0.13659,0.52874 0.25893,1.01196 0.35967,1.42368 0.10073,0.41173 0.17999,0.75174 0.23047,0.99374 0.0496,0.23769 0.10096,0.46721 0.15142,0.68265 0.0176,0.075 0.0341,0.13861 0.0512,0.20774 0.0247,0.10138 0.0488,0.19863 0.0723,0.28938 0.23818,0.89287 0.40308,1.12197 0.40308,0.45941 0,-0.26021 0.64131,-3.04808 1.42523,-6.19549 0.78393,-3.14741 1.50067,-6.05007 1.59267,-6.45025 l 0.16692,-0.72761 h 1.00924 c 0.55506,0 1.06851,0.0593 1.14101,0.13178 0.007,0.007 -0.001,0.0727 -0.0243,0.18913 -0.023,0.11642 -0.0606,0.28392 -0.11008,0.49558 -0.099,0.42333 -0.24735,1.02313 -0.42994,1.74356 -1.09556,4.3226 -3.42778,12.98629 -3.78272,13.91027 l -0.17776,0.46302 h -1.04904 -1.04851 l -0.14004,-0.46302 c -0.0721,-0.23866 -0.33043,-1.16538 -0.67903,-2.42931 -0.69721,-2.52788 -1.75572,-6.40404 -2.40864,-8.82014 -0.32646,-1.20804 -0.55152,-2.05128 -0.57929,-2.17816 -0.0899,-0.41092 -0.1499,-0.44048 -0.26924,-0.13229 -0.12682,0.32749 -1.87033,6.62274 -2.88561,10.37508 -0.33843,1.25078 -0.5959,2.21903 -0.68575,2.5895 l -0.22479,0.92605 -1.22731,0.0801 -1.22732,0.0801 -0.25683,-1.00614 c -0.21927,-0.8579 -1.5402,-5.83357 -3.49798,-13.17697 -0.20368,-0.76398 -0.38149,-1.54468 -0.45889,-1.99833 -0.0258,-0.15121 -0.0406,-0.26652 -0.0413,-0.33228 z m 36.77708,0.0305 v 0.22531 c 0,0.0398 -0.19475,0.25819 -0.46354,0.54312 -0.42259,0.51145 -1.3232,1.3602 -2.84375,2.78795 l -2.27066,2.13165 c -0.75267,0.80188 -0.9008,1.33057 -0.43667,2.235 0.61318,0.90664 1.63399,2.33654 2.84582,3.9641 1.57679,2.11771 2.49979,3.34001 2.93574,4.05505 0.28802,0.41862 0.49765,0.7345 0.49765,0.7736 v 0.21756 h -0.76585 c -0.17502,0.004 -0.38313,0 -0.62425,0 h -1.3901 l -2.90421,-4.10104 c -1.06614,-1.50553 -1.99342,-2.77333 -2.54042,-3.48661 -0.35919,-0.39203 -0.58825,-0.48541 -0.83147,-0.37414 -0.2516,0.2121 -0.60876,0.53853 -1.00149,0.92346 l -1.18701,1.16323 -0.13229,2.87166 -0.13229,2.87115 -1.12861,0.0816 -1.12758,0.0811 h -5.2e-4 l 0.0698,-8.41551 0.0703,-8.41602 h 1.05834 1.05833 l 0.13229,4.01732 v 5.2e-4 l 0.13229,4.01732 4.10105,-4.08347 4.10104,-4.08347 h 1.38906 z m -52.25521,0.1323 h 1.15756 1.15755 l 4.2664,6.31796 4.26641,6.31796 0.13229,-6.31796 0.13229,-6.31796 h 1.05834 1.05833 v 8.33437 8.33438 h -1.18701 -1.187 l -2.05208,-3.04271 c -1.12869,-1.67349 -3.03527,-4.50313 -4.23695,-6.28799 l -2.18488,-3.24528 -0.13229,6.28799 -0.13229,6.28799 -0.99477,0.0822 c -0.16602,0.0138 -0.31073,0.0322 -0.43615,0.0362 h -0.002 l -0.55656,0.046 -0.13384,-0.34934 c -0.0233,-0.0604 -0.0406,-0.5676 -0.0543,-1.24695 -0.0707,-1.21961 -0.0429,-3.36585 -0.01,-7.16959 z"></path></g></svg><style>@media (prefers-color-scheme: light) { :root { filter: none; } }
</style></svg>